<svg xmlns="http://www.w3.org/2000/svg" viewBox="0 0 64 64" width="64" height="64" role="img" aria-label="DP Forensic Psychology brain icon">
  <defs>
    <linearGradient id="c1" x1="0" x2="1">
      <stop offset="0%" stop-color="#ff6b6b"/>
      <stop offset="25%" stop-color="#ffb86b"/>
      <stop offset="50%" stop-color="#ffd56b"/>
      <stop offset="75%" stop-color="#8ee7b6"/>
      <stop offset="100%" stop-color="#7bd3f6"/>
    </linearGradient>
    <filter id="s" x="-20%" y="-20%" width="140%" height="140%">
      <feDropShadow dx="0" dy="1" stdDeviation="1.2" flood-color="#000" flood-opacity="0.12"/>
    </filter>
  </defs>

  <!-- transparent background so it sits well next to text -->
  <g transform="translate(0,0)" filter="url(#s)">
    <!-- brain silhouette -->
    <path d="M44 8c-6-1-12 2-15 6-3-4-9-7-15-6-7 1-12 7-12 14 0 7 6 15 9 17 3 2 8 4 12 3 3 4 8 6 14 6s11-2 14-6c3 1 9-1 12-3 3-2 9-10 9-17 0-7-5-13-12-14-6-1-12 1-15 5-3-4-9-7-15-6z" fill="url(#c1)"/>

    <!-- white lobes accents -->
    <path d="M20 18c2-3 6-5 10-4" fill="none" stroke="#ffffff" stroke-width="1.2" stroke-linecap="round" stroke-opacity="0.9"/>
    <path d="M44 18c-2-3-6-5-10-4" fill="none" stroke="#ffffff" stroke-width="1.2" stroke-linecap="round" stroke-opacity="0.9"/>

    <!-- nodes -->
    <circle cx="18" cy="26" r="1.6" fill="#ffffff" opacity="0.9"/>
    <circle cx="28" cy="20" r="1.6" fill="#ffffff" opacity="0.9"/>
    <circle cx="36" cy="22" r="1.6" fill="#ffffff" opacity="0.9"/>
    <circle cx="46" cy="26" r="1.6" fill="#ffffff" opacity="0.9"/>
  </g>
</svg>
